<?xml version="1.0" encoding="utf-8"?>
<!-- Generator: Adobe Illustrator 19.2.0, SVG Export Plug-In . SVG Version: 6.00 Build 0)  -->
<svg version="1.1" id="Layer_1" xmlns="http://www.w3.org/2000/svg" xmlns:xlink="http://www.w3.org/1999/xlink" x="0px" y="0px"
	 viewBox="0 0 134.3 22" style="enable-background:new 0 0 134.3 22;" xml:space="preserve">
<style type="text/css">
	.st0{clip-path:url(#SVGID_2_);fill:#FFFFFF;}
	.st1{clip-path:url(#SVGID_2_);fill:#206B92;}
	.st2{clip-path:url(#SVGID_2_);fill:#DA3A3C;}
</style>
<g>
	<defs>
		<rect id="SVGID_1_" y="0" width="134.3" height="22"/>
	</defs>
	<clipPath id="SVGID_2_">
		<use xlink:href="#SVGID_1_"  style="overflow:visible;"/>
	</clipPath>
	<path class="st0" d="M10.7,11.1c0,1-0.2,1.8-1.1,2.3c-1.8,1.1-3.8,0-3.9-2.1l0-9.8H3v9.7c0,1.3,0.4,1.9,0.5,2.2
		c1.2,2.4,3.8,3.6,6.3,2.7c0.9-0.3,1.6-0.9,2.4-1.4l0.5,0.4c1.7,1.4,3.6,1.7,5.6,0.8c2-0.9,2.9-2.5,2.9-4.7l0-9.7h-2.6
		c0,3.2,0,6.4,0,9.5c0,1.6-1.2,2.8-2.6,2.8c-1.5,0-2.5-1.2-2.5-2.8l0-9.4h-2.8L10.7,11.1z"/>
	<path class="st1" d="M113.1,21.5c-1.1,0-1.7-0.2-2.1-0.4c-1.3-0.6-2.5-1.5-2.9-3.2h2.8c1,1.1,2.3,1.6,3.7,0.9
		c1.3-0.6,1.7-2.1,1.6-3.5c-0.2,0.2-0.5,0.3-0.6,0.4c-2.9,2-6.8,0.3-7.6-3.3c-0.5-2.2-0.1-4.2,1.6-5.8c1.6-1.5,3.6-1.7,5.6-1
		c2.2,0.8,3.4,2.5,3.5,4.7c0.1,2.1,0.1,4.3,0,6.4c-0.1,2.4-1.3,3.9-3.7,4.7C114.3,21.5,113.6,21.5,113.1,21.5 M116.1,10.7
		c0-1.8-1.2-3.2-2.9-3.1c-1.5,0-2.8,1.4-2.8,3.1c0,1.7,1.3,3.2,2.9,3.1C114.9,13.8,116.1,12.5,116.1,10.7"/>
	<path class="st1" d="M106.1,0.5c0,3.5,0,7,0,10.5c0,2.9-2.2,5.2-5.1,5.4c-2.9,0.2-5.3-1.7-5.8-4.8c-0.5-2.7,1.2-5.6,3.8-6.3
		c1.6-0.4,3-0.1,4.5,1.1V0.5H106.1z M97.8,10.8c0,1.7,1.2,3.1,2.7,3.1c1.6,0,2.9-1.4,2.9-3.1c0-1.7-1.3-3.1-2.8-3.1
		C99,7.6,97.8,8.9,97.8,10.8"/>
	<path class="st0" d="M44.1,0.5c0,3.6,0,7.7,0,11.3c0,1.2,0.3,1.6,2,2V16c-2.5,0.5-4.5-1.5-4.6-4.2c0-3.9,0-7.4,0-11.3H44.1z"/>
	<path class="st1" d="M79.8,0.5c0,3.6,0,7.7,0,11.3c0,1.2,0.3,1.6,2,2V16c-2.5,0.5-4.5-1.5-4.6-4.2c0-3.9,0-7.4,0-11.3H79.8z"/>
	<path class="st0" d="M37.9,0.5c0,3.6,0,7.7,0,11.3c0,1.2,0.3,1.6,2,2V16c-2.5,0.5-4.5-1.5-4.6-4.2c0-3.9,0-7.4,0-11.3H37.9z"/>
	<path class="st2" d="M55.3,15.9c-2.5-1.9-4.8-3.9-6.6-6.5c-0.9-1.3-1.6-2.6-1.2-4.2c0.3-1.6,1.3-2.8,2.9-3.3
		C52,1.4,53.5,1.7,54.8,3c0.2,0.2,0.3,0.4,0.8,0.8c0.2-0.3,0.6-0.6,0.8-0.8c1.4-1.5,3.4-1.8,5.1-0.7C63,3.4,63.8,5.6,63,7.5
		c-0.4,1-1,1.9-1.6,2.7C59.6,12.4,57.6,14.2,55.3,15.9"/>
	<path class="st1" d="M67.4,11.8v4.2h-2.7l0-9.7c0-2.8,2.1-5,4.7-5.2c3.1-0.2,5.4,1.5,6,4.4c0.5,2.6-1.2,5.3-3.8,6
		c-0.5,0.1-1,0.2-1.5,0.2C69.2,11.8,68.4,11.8,67.4,11.8 M67.3,9.5c1.3-0.1,2.4,0,3.5-0.3c1.3-0.3,2.2-1.7,2-2.9
		c-0.2-1.4-1.3-2.5-2.6-2.6c-1.3-0.1-2.5,0.8-2.8,2.3C67.3,7.1,67.3,8.1,67.3,9.5"/>
	<path class="st1" d="M93.5,9.6c-2.4,1-4.9,2.1-7.3,3.1c1.1,1.7,2.7,1.8,4.6,0.1h2.6c-0.5,2.3-3,3.9-5.6,3.5c-3.1-0.4-5.1-3-4.9-6.2
		c0.2-2.8,2.5-5.1,5.3-5.1C91.1,5,93.2,6.8,93.5,9.6 M85.4,10.6c1.8-0.8,3.4-1.5,5.1-2.2c-1.1-1.1-2.2-1.3-3.4-0.8
		C86.1,8.2,85.5,9.1,85.4,10.6"/>
	<path class="st1" d="M123.9,12.8c1.4,1.7,2.9,1.7,4.6,0.1h2.7c-0.6,2.9-3.9,3.8-5.8,3.5c-3.1-0.6-4.9-3.1-4.7-6.3
		c0.2-2.6,2.6-4.9,5.2-4.9c2.9-0.1,5,1.6,5.4,4.5C128.9,10.6,126.4,11.7,123.9,12.8 M128.2,8.5c-1-1.1-2.1-1.4-3.2-0.8
		c-1.2,0.5-1.8,1.6-1.6,2.9C125,9.9,126.6,9.2,128.2,8.5"/>
	<path class="st0" d="M33.5,9.6c-2.4,1-4.8,2.1-7.2,3.1c0.9,1.8,2.7,1.8,4.5,0.2h2.6c-0.4,2.7-3.7,3.9-5.8,3.5
		c-3.1-0.6-5-3.3-4.6-6.5c0.3-2.5,2.6-5,6-4.7C31.5,5.3,33.5,7.2,33.5,9.6 M30.5,8.5c-0.9-1.2-2.2-1.4-3.3-0.8
		c-1.2,0.6-1.7,1.6-1.4,2.8C27.4,9.8,28.9,9.2,30.5,8.5"/>
</g>
</svg>
